<svg width="146" height="18" viewBox="0 0 146 18" fill="none" xmlns="http://www.w3.org/2000/svg">
<path d="M0 17.6538V0.34613H5.98254C7.24895 0.34613 8.33033 0.539812 9.22669 0.927175C10.1313 1.31454 10.822 1.92031 11.299 2.74448C11.7759 3.56866 12.0144 4.63597 12.0144 5.94641C12.0144 7.25684 11.7759 8.33239 11.299 9.17305C10.8303 10.0055 10.1477 10.6236 9.25136 11.0274C8.355 11.4313 7.28185 11.6332 6.03189 11.6332H2.91109V17.6538H0ZM2.91109 9.18542H5.67417C6.81722 9.18542 7.67246 8.9258 8.23988 8.40657C8.81552 7.88734 9.10334 7.07965 9.10334 5.98349C9.10334 4.88734 8.81963 4.08377 8.25221 3.57278C7.68479 3.05355 6.809 2.79393 5.62483 2.79393H2.91109V9.18542Z" fill="black"/>
<path d="M33.3434 17.6538V0.34613H39.4C40.5924 0.34613 41.6368 0.535691 42.5331 0.914812C43.4295 1.28569 44.1243 1.85849 44.6178 2.63322C45.1112 3.40794 45.3579 4.39695 45.3579 5.60025C45.3579 6.83652 45.0906 7.83789 44.5561 8.60437C44.0298 9.37085 43.3102 9.97662 42.3974 10.4217L46.283 17.6538H43.0019L39.5974 11.114C39.5727 11.114 39.5521 11.114 39.5357 11.114C39.5192 11.114 39.4987 11.114 39.474 11.114H36.2545V17.6538H33.3434ZM36.2545 8.66618H38.8572C40.1154 8.66618 41.0118 8.39421 41.5463 7.85025C42.089 7.29805 42.3604 6.58514 42.3604 5.71151C42.3604 4.78844 42.0932 4.0714 41.5586 3.56042C41.0241 3.04943 40.1483 2.79393 38.9313 2.79393H36.2545V8.66618Z" fill="black"/>
<path d="M51.7326 17.6538V3.06591H46.7986V0.34613H59.5408V3.06591H54.5944V17.6538H51.7326Z" fill="black"/>
<path d="M78.2752 17.6538V0.34613H88.871V3.06591H81.1369V7.25684H87.1071V9.97662H81.1369V17.6538H78.2752Z" fill="black"/>
<path d="M109.908 17.6538V0.34613H112.77V15.0824H120.171V17.6538H109.908Z" fill="black"/>
<path d="M122.267 17.6538V0.34613H125.129V17.6538H122.267Z" fill="black"/>
<path d="M67.5 6.02115C66.6716 6.02115 66 5.339 66 4.51057V4.51057C66 3.68215 66.6716 3 67.5 3V3C68.3284 3 69 3.68215 69 4.51057V4.51057C69 5.339 68.3284 6.02115 67.5 6.02115V6.02115ZM67.5 15C66.6716 15 66 14.3179 66 13.4894V13.4894C66 12.661 66.6716 11.9789 67.5 11.9789V11.9789C68.3284 11.9789 69 12.661 69 13.4894V13.4894C69 14.3179 68.3284 15 67.5 15V15Z" fill="black"/>
<rect x="14.5" y="1.5" width="15" height="15" rx="7.5" stroke="black" stroke-width="3"/>
<path d="M98.5 16.5C94.3579 16.5 91 13.1421 91 9C91 4.85786 94.3579 1.5 98.5 1.5C102.642 1.5 106 4.85786 106 9C106 13.1421 102.642 16.5 98.5 16.5Z" stroke="black" stroke-width="3"/>
<path d="M136.5 16.5C132.358 16.5 129 13.1421 129 9C129 4.85786 132.358 1.5 136.5 1.5C140.642 1.5 144 4.85786 144 9C144 13.1421 140.642 16.5 136.5 16.5Z" stroke="black" stroke-width="3"/>
</svg>
